<svg width="29" height="24" viewBox="0 0 29 24" fill="none"
    xmlns="http://www.w3.org/2000/svg">
    <g id="&#240;&#159;&#166;&#134; icon &#34;bell&#34;">
        <path id="Vector" d="M23.2129 8.40112C23.2129 6.70344 22.3189 5.07529 20.7276 3.87485C19.1363 2.6744 16.9781 2 14.7277 2C12.4773 2 10.3191 2.6744 8.72781 3.87485C7.13654 5.07529 6.24257 6.70344 6.24257 8.40112C6.24257 15.8691 2 18.0028 2 18.0028H27.4554C27.4554 18.0028 23.2129 15.8691 23.2129 8.40112Z" stroke="#B3B0B0" stroke-width="3" stroke-linecap="round" stroke-linejoin="round"/>
        <path id="Vector_2" d="M17.1741 21.0033C16.9255 21.3065 16.5687 21.5581 16.1392 21.733C15.7099 21.9079 15.2231 22 14.7276 22C14.232 22 13.7453 21.9079 13.3159 21.733C12.8866 21.5581 12.5296 21.3065 12.281 21.0033" stroke="#B3B0B0" stroke-width="3" stroke-linecap="round" stroke-linejoin="round"/>
    </g>
</svg>
